<svg width="1180" height="610" viewBox="0 0 1180 610" xmlns="http://www.w3.org/2000/svg" xmlns:xlink="http://www.w3.org/1999/xlink">
<defs>
  <clipPath id="canvasClip"><rect x="0" y="0" width="1180" height="610" rx="26"/></clipPath>
  <clipPath id="leftClip"><rect x="30" y="30" width="420" height="550" rx="20"/></clipPath>
  <clipPath id="rightClip"><rect x="470" y="30" width="680" height="550" rx="20"/></clipPath>

  <linearGradient id="bgGrad" x1="0%" y1="0%" x2="100%" y2="100%">
    <stop offset="0%" stop-color="#050914"/>
    <stop offset="50%" stop-color="#030712"/>
    <stop offset="100%" stop-color="#04060f"/>
  </linearGradient>

  <radialGradient id="blobViolet" cx="50%" cy="50%" r="50%">
    <stop offset="0%" stop-color="#7C3AED" stop-opacity="0.35"/>
    <stop offset="100%" stop-color="#7C3AED" stop-opacity="0"/>
  </radialGradient>
  <radialGradient id="blobCyan" cx="50%" cy="50%" r="50%">
    <stop offset="0%" stop-color="#22D3EE" stop-opacity="0.30"/>
    <stop offset="100%" stop-color="#22D3EE" stop-opacity="0"/>
  </radialGradient>
  <radialGradient id="blobEmerald" cx="50%" cy="50%" r="50%">
    <stop offset="0%" stop-color="#10B981" stop-opacity="0.25"/>
    <stop offset="100%" stop-color="#10B981" stop-opacity="0"/>
  </radialGradient>

  <linearGradient id="accentGrad" x1="0%" y1="0%" x2="100%" y2="0%" gradientUnits="objectBoundingBox">
    <stop offset="0%" stop-color="#7C3AED"/>
    <stop offset="50%" stop-color="#22D3EE"/>
    <stop offset="100%" stop-color="#10B981"/>
    <animateTransform attributeName="gradientTransform" type="rotate" from="0 0.5 0.5" to="360 0.5 0.5" dur="6s" repeatCount="indefinite"/>
  </linearGradient>

  <linearGradient id="asciiGrad" x1="0%" y1="0%" x2="100%" y2="100%">
    <stop offset="0%" stop-color="#22D3EE">
      <animate attributeName="stop-color" values="#22D3EE;#7C3AED;#10B981;#22D3EE" dur="7s" repeatCount="indefinite"/>
    </stop>
    <stop offset="50%" stop-color="#A78BFA">
      <animate attributeName="stop-color" values="#A78BFA;#22D3EE;#7C3AED;#A78BFA" dur="7s" repeatCount="indefinite"/>
    </stop>
    <stop offset="100%" stop-color="#7C3AED">
      <animate attributeName="stop-color" values="#7C3AED;#10B981;#22D3EE;#7C3AED" dur="7s" repeatCount="indefinite"/>
    </stop>
  </linearGradient>

  <linearGradient id="scanGrad" x1="0%" y1="0%" x2="0%" y2="100%">
    <stop offset="0%" stop-color="#22D3EE" stop-opacity="0"/>
    <stop offset="50%" stop-color="#22D3EE" stop-opacity="0.35"/>
    <stop offset="100%" stop-color="#22D3EE" stop-opacity="0"/>
  </linearGradient>

  <linearGradient id="glassTop" x1="0%" y1="0%" x2="0%" y2="100%">
    <stop offset="0%" stop-color="#FFFFFF" stop-opacity="0.07"/>
    <stop offset="100%" stop-color="#FFFFFF" stop-opacity="0"/>
  </linearGradient>

  <linearGradient id="pillGrad" x1="0%" y1="0%" x2="100%" y2="0%">
    <stop offset="0%" stop-color="#7C3AED" stop-opacity="0.25"/>
    <stop offset="100%" stop-color="#22D3EE" stop-opacity="0.25"/>
  </linearGradient>

  <filter id="softGlow" x="-60%" y="-60%" width="220%" height="220%">
    <feGaussianBlur stdDeviation="4" result="blur"/>
    <feMerge>
      <feMergeNode in="blur"/>
      <feMergeNode in="SourceGraphic"/>
    </feMerge>
  </filter>

  <filter id="bigGlow" x="-100%" y="-100%" width="300%" height="300%">
    <feGaussianBlur stdDeviation="18"/>
  </filter>

  <filter id="noiseFilter" x="0" y="0" width="100%" height="100%">
    <feTurbulence type="fractalNoise" baseFrequency="0.85" numOctaves="2" stitchTiles="stitch" result="noise"/>
    <feColorMatrix in="noise" type="matrix" values="0 0 0 0 1  0 0 0 0 1  0 0 0 0 1  0 0 0 0.02 0"/>
  </filter>

  <clipPath id="clipP1"><rect id="rP1" x="500" y="194" width="0" height="26">
    <animate id="type1" attributeName="width" from="0" to="205" dur="1s" begin="0s;erase5.end" fill="freeze"/>
    <animate id="erase1" attributeName="width" from="205" to="0" dur="0.3s" begin="type1.end+1.2s" fill="freeze"/>
  </rect></clipPath>
  <clipPath id="clipP2"><rect id="rP2" x="500" y="194" width="0" height="26">
    <animate id="type2" attributeName="width" from="0" to="239" dur="1s" begin="erase1.end" fill="freeze"/>
    <animate id="erase2" attributeName="width" from="239" to="0" dur="0.3s" begin="type2.end+1.2s" fill="freeze"/>
  </rect></clipPath>
  <clipPath id="clipP3"><rect id="rP3" x="500" y="194" width="0" height="26">
    <animate id="type3" attributeName="width" from="0" to="274" dur="1s" begin="erase2.end" fill="freeze"/>
    <animate id="erase3" attributeName="width" from="274" to="0" dur="0.3s" begin="type3.end+1.2s" fill="freeze"/>
  </rect></clipPath>
  <clipPath id="clipP4"><rect id="rP4" x="500" y="194" width="0" height="26">
    <animate id="type4" attributeName="width" from="0" to="331" dur="1s" begin="erase3.end" fill="freeze"/>
    <animate id="erase4" attributeName="width" from="331" to="0" dur="0.3s" begin="type4.end+1.2s" fill="freeze"/>
  </rect></clipPath>
  <clipPath id="clipP5"><rect id="rP5" x="500" y="194" width="0" height="26">
    <animate id="type5" attributeName="width" from="0" to="285" dur="1s" begin="erase4.end" fill="freeze"/>
    <animate id="erase5" attributeName="width" from="285" to="0" dur="0.3s" begin="type5.end+1.2s" fill="freeze"/>
  </rect></clipPath>
</defs>

<g clip-path="url(#canvasClip)">
  <rect x="0" y="0" width="1180" height="610" fill="url(#bgGrad)"/>
  <rect x="0" y="0" width="1180" height="610" filter="url(#noiseFilter)"/>

  <!-- floating background blobs -->
  <circle cx="180" cy="120" r="220" fill="url(#blobViolet)" filter="url(#bigGlow)">
    <animateTransform attributeName="transform" type="translate" values="0,0;30,20;0,0" dur="9s" repeatCount="indefinite"/>
  </circle>
  <circle cx="950" cy="480" r="240" fill="url(#blobCyan)" filter="url(#bigGlow)">
    <animateTransform attributeName="transform" type="translate" values="0,0;-25,-15;0,0" dur="11s" repeatCount="indefinite"/>
  </circle>
  <circle cx="820" cy="90" r="180" fill="url(#blobEmerald)" filter="url(#bigGlow)">
    <animateTransform attributeName="transform" type="translate" values="0,0;-15,25;0,0" dur="8s" repeatCount="indefinite"/>
  </circle>

  <!-- particles -->
  <g fill="#22D3EE">
    <circle cx="120" cy="500" r="2"><animate attributeName="opacity" values="0;1;0" dur="4s" begin="0s" repeatCount="indefinite"/><animateTransform attributeName="transform" type="translate" values="0,0;0,-40;0,0" dur="4s" repeatCount="indefinite"/></circle>
    <circle cx="380" cy="80" r="1.6"><animate attributeName="opacity" values="0;1;0" dur="5s" begin="1s" repeatCount="indefinite"/><animateTransform attributeName="transform" type="translate" values="0,0;0,-30;0,0" dur="5s" begin="1s" repeatCount="indefinite"/></circle>
    <circle cx="1050" cy="150" r="2" fill="#7C3AED"><animate attributeName="opacity" values="0;1;0" dur="4.5s" begin="0.5s" repeatCount="indefinite"/><animateTransform attributeName="transform" type="translate" values="0,0;0,35;0,0" dur="4.5s" begin="0.5s" repeatCount="indefinite"/></circle>
    <circle cx="600" cy="560" r="1.8" fill="#10B981"><animate attributeName="opacity" values="0;1;0" dur="6s" begin="2s" repeatCount="indefinite"/><animateTransform attributeName="transform" type="translate" values="0,0;20,-20;0,0" dur="6s" begin="2s" repeatCount="indefinite"/></circle>
    <circle cx="900" cy="380" r="1.5" fill="#22D3EE"><animate attributeName="opacity" values="0;1;0" dur="5.5s" begin="1.5s" repeatCount="indefinite"/><animateTransform attributeName="transform" type="translate" values="0,0;-25,15;0,0" dur="5.5s" begin="1.5s" repeatCount="indefinite"/></circle>
  </g>

  <!-- outer border shimmer -->
  <rect x="2" y="2" width="1176" height="606" rx="24" fill="none" stroke="url(#accentGrad)" stroke-opacity="0.6" stroke-width="1.4"/>

  <!-- ============ LEFT PANEL ============ -->
  <g>
    <rect x="30" y="30" width="420" height="550" rx="20" fill="#0F172A" fill-opacity="0.55" stroke="rgba(255,255,255,0.08)" stroke-width="1"/>
    <rect x="30" y="30" width="420" height="120" rx="20" fill="url(#glassTop)" clip-path="url(#leftClip)"/>

    <g clip-path="url(#leftClip)">
      <!-- scanline -->
      <rect x="30" y="0" width="420" height="6" fill="url(#scanGrad)">
        <animate attributeName="y" values="20;570;20" dur="4.5s" repeatCount="indefinite"/>
      </rect>

      <!-- floating ascii block -->
      <g transform="translate(0,0)" font-family="'Fira Code','Courier New',monospace" font-size="15" font-weight="700" letter-spacing="1" fill="url(#asciiGrad)" text-anchor="middle" xml:space="preserve">
        <animateTransform attributeName="transform" type="translate" values="0,0;0,-8;0,0" dur="5s" repeatCount="indefinite"/>

        <text x="240" y="95" opacity="0">      ▄▄▄▄▄▄▄▄▄▄▄       <animate attributeName="opacity" to="1" dur="0.01s" begin="0.1s" fill="freeze"/></text>
        <text x="240" y="118" opacity="0">   ▄██████████████▄    <animate attributeName="opacity" to="1" dur="0.01s" begin="0.35s" fill="freeze"/></text>
        <text x="240" y="141" opacity="0">  ████████████████████  <animate attributeName="opacity" to="1" dur="0.01s" begin="0.6s" fill="freeze"/></text>
        <text x="240" y="164" opacity="0">  ███▀▀▀██▀▀▀▀██▀▀▀███  <animate attributeName="opacity" to="1" dur="0.01s" begin="0.85s" fill="freeze"/></text>
        <text x="240" y="187" opacity="0">  ███  ▓▓    ▓▓  ███  <animate attributeName="opacity" to="1" dur="0.01s" begin="1.1s" fill="freeze"/></text>
        <text x="240" y="210" opacity="0">  ███   ▀▀▀▀▀▀   ███  <animate attributeName="opacity" to="1" dur="0.01s" begin="1.35s" fill="freeze"/></text>
        <text x="240" y="233" opacity="0">  ████▄▄▄▄▄▄▄▄▄▄▄▄████  <animate attributeName="opacity" to="1" dur="0.01s" begin="1.6s" fill="freeze"/></text>
        <text x="240" y="256" opacity="0">   ██████████████████   <animate attributeName="opacity" to="1" dur="0.01s" begin="1.85s" fill="freeze"/></text>
        <text x="240" y="279" opacity="0">    ▀██████████████▀    <animate attributeName="opacity" to="1" dur="0.01s" begin="2.1s" fill="freeze"/></text>
        <text x="240" y="302" opacity="0">      ▀▀▀▀▀▀▀▀▀▀▀       <animate attributeName="opacity" to="1" dur="0.01s" begin="2.35s" fill="freeze"/></text>
        <text x="240" y="335" opacity="0">   ╔═══════════════╗   <animate attributeName="opacity" to="1" dur="0.01s" begin="2.6s" fill="freeze"/></text>
        <text x="240" y="360" opacity="0">   ║   H A S S A A N  ║   <animate attributeName="opacity" to="1" dur="0.01s" begin="2.85s" fill="freeze"/></text>
        <text x="240" y="385" opacity="0">   ║   R A Z A       ║   <animate attributeName="opacity" to="1" dur="0.01s" begin="3.1s" fill="freeze"/></text>
        <text x="240" y="410" opacity="0">   ╚═══════════════╝   <animate attributeName="opacity" to="1" dur="0.01s" begin="3.35s" fill="freeze"/></text>

        <text x="240" y="445" font-size="13" fill="#22D3EE" opacity="0">&lt; building things that ship /&gt;<animate attributeName="opacity" to="1" dur="0.01s" begin="3.7s" fill="freeze"/></text>

        <!-- blinking cursor -->
        <rect x="228" y="452" width="10" height="16" fill="#22D3EE" opacity="0">
          <animate attributeName="opacity" values="0;1;1;0;0" dur="1s" begin="3.9s" repeatCount="indefinite"/>
        </rect>
      </g>
    </g>
    <rect x="30" y="30" width="420" height="550" rx="20" fill="none" stroke="url(#accentGrad)" stroke-opacity="0.25" stroke-width="1"/>
  </g>

  <!-- ============ RIGHT PANEL (TERMINAL) ============ -->
  <g>
    <rect x="470" y="30" width="680" height="550" rx="20" fill="#0F172A" fill-opacity="0.55" stroke="rgba(255,255,255,0.08)" stroke-width="1"/>
    <rect x="470" y="30" width="680" height="90" rx="20" fill="url(#glassTop)" clip-path="url(#rightClip)"/>

    <!-- title bar -->
    <rect x="470" y="30" width="680" height="42" rx="20" fill="#0B1220" fill-opacity="0.7"/>
    <rect x="470" y="52" width="680" height="20" fill="#0B1220" fill-opacity="0.7"/>
    <circle cx="497" cy="51" r="6" fill="#FF5F56"/>
    <circle cx="518" cy="51" r="6" fill="#FFBD2E"/>
    <circle cx="539" cy="51" r="6" fill="#27C93F"/>
    <text x="810" y="56" font-family="'Fira Code','Courier New',monospace" font-size="13" fill="#94A3B8" text-anchor="middle">hassaan@dev-terminal ~ zsh</text>

    <g font-family="'Fira Code','Courier New',monospace">
      <!-- greeting -->
      <text x="500" y="110" font-size="22" fill="#F8FAFC" font-weight="700" opacity="0">Hi <tspan>👋</tspan><animate attributeName="opacity" to="1" dur="0.01s" begin="0.2s" fill="freeze"/></text>
      <text x="500" y="144" font-size="26" font-weight="700" fill="url(#asciiGrad)" opacity="0">I'm Hassaan Raza<animate attributeName="opacity" to="1" dur="0.01s" begin="0.6s" fill="freeze"/></text>

      <!-- typing role -->
      <text x="500" y="180" font-size="17" fill="#22D3EE">
        <tspan fill="#7C3AED">$</tspan><tspan dx="8" fill="#94A3B8">whoami</tspan>
      </text>

      <g clip-path="url(#clipP1)">
        <text x="500" y="212" font-size="19" fill="#F8FAFC" font-weight="600">Frontend Engineer</text>
      </g>
      <g clip-path="url(#clipP2)">
        <text x="500" y="212" font-size="19" fill="#F8FAFC" font-weight="600">Full Stack Developer</text>
      </g>
      <g clip-path="url(#clipP3)">
        <text x="500" y="212" font-size="19" fill="#F8FAFC" font-weight="600">Open Source Contributor</text>
      </g>
      <g clip-path="url(#clipP4)">
        <text x="500" y="212" font-size="19" fill="#F8FAFC" font-weight="600">AI &amp; Agentic Systems Builder</text>
      </g>
      <g clip-path="url(#clipP5)">
        <text x="500" y="212" font-size="19" fill="#F8FAFC" font-weight="600">Cybersecurity Enthusiast</text>
      </g>
      <rect x="500" y="196" width="3" height="20" fill="#22D3EE">
        <animate attributeName="opacity" values="1;0;1" dur="0.8s" repeatCount="indefinite"/>
      </rect>
    </g>

    <!-- info list -->
    <g font-family="'Fira Code','Courier New',monospace" font-size="14.5" fill="#94A3B8">
      <g opacity="0">
        <animate attributeName="opacity" to="1" dur="0.01s" begin="1.0s" fill="freeze"/>
        <text x="500" y="255" fill="#7C3AED">📍</text><text x="524" y="255">Karachi, Pakistan</text>
      </g>
      <g opacity="0">
        <animate attributeName="opacity" to="1" dur="0.01s" begin="1.3s" fill="freeze"/>
        <text x="500" y="282" fill="#22D3EE">🎓</text><text x="524" y="282">B.S. Computer Science, FAST-NUCES Karachi</text>
      </g>
      <g opacity="0">
        <animate attributeName="opacity" to="1" dur="0.01s" begin="1.6s" fill="freeze"/>
        <text x="500" y="309" fill="#10B981">🎯</text><text x="524" y="309">Generative AI · Agentic AI · Cybersecurity</text>
      </g>
      <g opacity="0">
        <animate attributeName="opacity" to="1" dur="0.01s" begin="1.9s" fill="freeze"/>
        <text x="500" y="336" fill="#22D3EE">🔗</text><text x="524" y="336">github.com/hassaanRaza71</text>
      </g>
      <g opacity="0">
        <animate attributeName="opacity" to="1" dur="0.01s" begin="2.2s" fill="freeze"/>
        <text x="500" y="363" fill="#7C3AED">✉️</text><text x="524" y="363">hassaanraza71@gmail.com</text>
      </g>
    </g>

    <!-- skills -->
    <text x="500" y="402" font-family="'Fira Code','Courier New',monospace" font-size="14" fill="#94A3B8" opacity="0">
      $ ls ./skills
      <animate attributeName="opacity" to="1" dur="0.01s" begin="2.5s" fill="freeze"/>
    </text>

    <g font-family="'Fira Code','Courier New',monospace" font-size="12.5" font-weight="600" fill="#E2E8F0">
      <!-- pills row 1 -->
      <g opacity="0"><animate attributeName="opacity" to="1" dur="0.01s" begin="2.65s" fill="freeze"/>
        <rect x="500" y="416" width="66" height="30" rx="15" fill="url(#pillGrad)" stroke="rgba(34,211,238,0.4)" filter="url(#softGlow)"/><text x="533" y="436" text-anchor="middle">React</text>
        <rect x="574" y="416" width="76" height="30" rx="15" fill="url(#pillGrad)" stroke="rgba(34,211,238,0.4)" filter="url(#softGlow)"/><text x="612" y="436" text-anchor="middle">Next.js</text>
        <rect x="658" y="416" width="82" height="30" rx="15" fill="url(#pillGrad)" stroke="rgba(34,211,238,0.4)" filter="url(#softGlow)"/><text x="699" y="436" text-anchor="middle">Node.js</text>
        <rect x="748" y="416" width="98" height="30" rx="15" fill="url(#pillGrad)" stroke="rgba(34,211,238,0.4)" filter="url(#softGlow)"/><text x="797" y="436" text-anchor="middle">TypeScript</text>
        <rect x="854" y="416" width="88" height="30" rx="15" fill="url(#pillGrad)" stroke="rgba(34,211,238,0.4)" filter="url(#softGlow)"/><text x="898" y="436" text-anchor="middle">Tailwind</text>
        <rect x="950" y="416" width="76" height="30" rx="15" fill="url(#pillGrad)" stroke="rgba(34,211,238,0.4)" filter="url(#softGlow)"/><text x="988" y="436" text-anchor="middle">Python</text>
      </g>
      <!-- pills row 2 -->
      <g opacity="0"><animate attributeName="opacity" to="1" dur="0.01s" begin="2.85s" fill="freeze"/>
        <rect x="500" y="456" width="76" height="30" rx="15" fill="url(#pillGrad)" stroke="rgba(124,58,237,0.4)" filter="url(#softGlow)"/><text x="538" y="476" text-anchor="middle">Docker</text>
        <rect x="584" y="456" width="88" height="30" rx="15" fill="url(#pillGrad)" stroke="rgba(124,58,237,0.4)" filter="url(#softGlow)"/><text x="628" y="476" text-anchor="middle">Postgres</text>
        <rect x="680" y="456" width="66" height="30" rx="15" fill="url(#pillGrad)" stroke="rgba(124,58,237,0.4)" filter="url(#softGlow)"/><text x="713" y="476" text-anchor="middle">AWS</text>
        <rect x="754" y="456" width="58" height="30" rx="15" fill="url(#pillGrad)" stroke="rgba(124,58,237,0.4)" filter="url(#softGlow)"/><text x="783" y="476" text-anchor="middle">Git</text>
        <rect x="820" y="456" width="72" height="30" rx="15" fill="url(#pillGrad)" stroke="rgba(124,58,237,0.4)" filter="url(#softGlow)"/><text x="856" y="476" text-anchor="middle">Figma</text>
      </g>
    </g>

    <!-- divider -->
    <line x1="500" y1="510" x2="1120" y2="510" stroke="rgba(255,255,255,0.08)" stroke-width="1"/>

    <!-- social icons -->
    <g opacity="0">
      <animate attributeName="opacity" to="1" dur="0.01s" begin="3.1s" fill="freeze"/>
      <g transform="translate(500,538)">
        <circle r="20" fill="#0B1220" stroke="url(#accentGrad)" stroke-width="1.2" filter="url(#softGlow)">
          <animate attributeName="r" values="20;21.3;20" dur="3s" repeatCount="indefinite"/>
        </circle>
        <path d="M0,-10 C-5.5,-10 -10,-5.7 -10,0.3 C-10,5 -6.9,9 -2.6,10.4 C-2,10.5 -1.8,10.1 -1.8,9.8 C-1.8,9.5 -1.8,8.6 -1.8,7.4 C-4.7,8 -5.3,6 -5.3,6 C-5.8,4.8 -6.4,4.5 -6.4,4.5 C-7.3,3.9 -6.3,3.9 -6.3,3.9 C-5.3,4 -4.7,4.9 -4.7,4.9 C-3.8,6.5 -2.3,6 -1.7,5.8 C-1.6,5.1 -1.3,4.6 -1,4.3 C-3.3,4.1 -5.7,3.2 -5.7,-0.7 C-5.7,-1.8 -5.3,-2.7 -4.7,-3.4 C-4.8,-3.7 -5.2,-4.8 -4.6,-6.2 C-4.6,-6.2 -3.7,-6.5 -1.8,-5.2 C-1,-5.4 -0.2,-5.5 0.6,-5.5 C1.4,-5.5 2.2,-5.4 3,-5.2 C4.9,-6.5 5.8,-6.2 5.8,-6.2 C6.4,-4.8 6,-3.7 5.9,-3.4 C6.5,-2.7 6.9,-1.8 6.9,-0.7 C6.9,3.2 4.5,4.1 2.2,4.3 C2.6,4.7 2.9,5.4 2.9,6.5 C2.9,8.1 2.9,9.4 2.9,9.8 C2.9,10.1 3.1,10.5 3.7,10.4 C8,9 11.1,5 11.1,0.3 C11.1,-5.7 6.6,-10 0.1,-10 Z" fill="#F8FAFC" transform="scale(1.15)"/>
      </g>
      <g transform="translate(556,538)">
        <circle r="20" fill="#0B1220" stroke="url(#accentGrad)" stroke-width="1.2" filter="url(#softGlow)">
          <animate attributeName="r" values="20;21.3;20" dur="3s" begin="0.3s" repeatCount="indefinite"/>
        </circle>
        <text x="0" y="6" text-anchor="middle" font-family="Arial" font-size="15" font-weight="700" fill="#F8FAFC">in</text>
      </g>
      <g transform="translate(612,538)">
        <circle r="20" fill="#0B1220" stroke="url(#accentGrad)" stroke-width="1.2" filter="url(#softGlow)">
          <animate attributeName="r" values="20;21.3;20" dur="3s" begin="0.6s" repeatCount="indefinite"/>
        </circle>
        <path d="M9,-6.5 C8.3,-6.2 7.6,-6 6.9,-5.9 C7.7,-6.4 8.3,-7.1 8.6,-8 C7.8,-7.5 7,-7.2 6.1,-7 C5.4,-7.7 4.4,-8.2 3.3,-8.2 C1.2,-8.2 -0.5,-6.5 -0.5,-4.4 C-0.5,-4.1 -0.4,-3.8 -0.4,-3.6 C-3.6,-3.7 -6.4,-5.3 -8.3,-7.6 C-8.6,-7.1 -8.8,-6.5 -8.8,-5.8 C-8.8,-4.6 -8.1,-3.5 -7.2,-2.9 C-7.8,-2.9 -8.3,-3.1 -8.8,-3.3 L-8.8,-3.3 C-8.8,-1.5 -7.5,0 -5.8,0.4 C-6.1,0.5 -6.4,0.5 -6.8,0.5 C-7,0.5 -7.3,0.5 -7.5,0.4 C-7,1.9 -5.6,3 -3.9,3 C-5.2,4 -6.9,4.6 -8.7,4.6 C-9,4.6 -9.3,4.6 -9.6,4.5 C-7.9,5.6 -5.9,6.3 -3.8,6.3 C3.3,6.3 7.2,0.4 7.2,-4.7 C7.2,-4.9 7.2,-5 7.2,-5.2 C8,-5.8 8.6,-6.5 9,-6.5 Z" fill="#F8FAFC"/>
      </g>
      <g transform="translate(668,538)">
        <circle r="20" fill="#0B1220" stroke="url(#accentGrad)" stroke-width="1.2" filter="url(#softGlow)">
          <animate attributeName="r" values="20;21.3;20" dur="3s" begin="0.9s" repeatCount="indefinite"/>
        </circle>
        <circle r="9" fill="none" stroke="#F8FAFC" stroke-width="1.4"/>
        <ellipse rx="9" ry="3.6" fill="none" stroke="#F8FAFC" stroke-width="1.1"/>
        <line x1="-9" y1="0" x2="9" y2="0" stroke="#F8FAFC" stroke-width="1.1"/>
      </g>
      <text x="712" y="543" font-family="'Fira Code','Courier New',monospace" font-size="13" fill="#94A3B8">GitHub · LinkedIn · Twitter · Portfolio</text>
    </g>

    <rect x="470" y="30" width="680" height="550" rx="20" fill="none" stroke="url(#accentGrad)" stroke-opacity="0.25" stroke-width="1"/>
  </g>

</g>
</svg>
